<?xml version="1.0" encoding="utf-8"?>
<!-- Generator: Adobe Illustrator 24.0.2, SVG Export Plug-In . SVG Version: 6.00 Build 0)  -->
<svg version="1.1" id="Layer_1" xmlns="http://www.w3.org/2000/svg" xmlns:xlink="http://www.w3.org/1999/xlink" x="0px" y="0px"
	 viewBox="0 0 300 150" enable-background="new 0 0 300 150" xml:space="preserve">
<g>
	<circle fill="#1F332C" cx="2.75" cy="2.75" r="2.75"/>
	<g>
		<circle fill="#1F332C" cx="2.75" cy="24.25" r="2.75"/>
		<circle fill="#1F332C" cx="2.75" cy="45.75" r="2.75"/>
		<circle fill="#1F332C" cx="2.75" cy="67.25" r="2.75"/>
		<circle fill="#1F332C" cx="2.75" cy="88.75" r="2.75"/>
		<circle fill="#1F332C" cx="2.75" cy="110.25" r="2.75"/>
		<circle fill="#1F332C" cx="2.75" cy="131.75" r="2.75"/>
		<circle fill="#1F332C" cx="2.75" cy="153.25" r="2.75"/>
	</g>
	<g>
		<circle fill="#1F332C" cx="24.25" cy="24.25" r="2.75"/>
		<circle fill="#1F332C" cx="24.25" cy="45.75" r="2.75"/>
		<circle fill="#1F332C" cx="24.25" cy="67.25" r="2.75"/>
		<circle fill="#1F332C" cx="24.25" cy="88.75" r="2.75"/>
		<circle fill="#1F332C" cx="24.25" cy="110.25" r="2.75"/>
		<circle fill="#1F332C" cx="24.25" cy="131.75" r="2.75"/>
		<circle fill="#1F332C" cx="24.25" cy="153.25" r="2.75"/>
	</g>
	<g>
		<circle fill="#1F332C" cx="45.75" cy="24.25" r="2.75"/>
		<circle fill="#1F332C" cx="45.75" cy="45.75" r="2.75"/>
		<circle fill="#1F332C" cx="45.75" cy="67.25" r="2.75"/>
		<circle fill="#1F332C" cx="45.75" cy="88.75" r="2.75"/>
		<circle fill="#1F332C" cx="45.75" cy="110.25" r="2.75"/>
		<circle fill="#1F332C" cx="45.75" cy="131.75" r="2.75"/>
		<circle fill="#1F332C" cx="45.75" cy="153.25" r="2.75"/>
	</g>
	<g>
		<circle fill="#1F332C" cx="67.25" cy="24.25" r="2.75"/>
		<circle fill="#1F332C" cx="67.25" cy="45.75" r="2.75"/>
		<circle fill="#1F332C" cx="67.25" cy="67.25" r="2.75"/>
		<circle fill="#1F332C" cx="67.25" cy="88.75" r="2.75"/>
		<circle fill="#1F332C" cx="67.25" cy="110.25" r="2.75"/>
		<circle fill="#1F332C" cx="67.25" cy="131.75" r="2.75"/>
		<circle fill="#1F332C" cx="67.25" cy="153.25" r="2.75"/>
	</g>
	<g>
		<circle fill="#1F332C" cx="88.75" cy="24.25" r="2.75"/>
		<circle fill="#1F332C" cx="88.75" cy="45.75" r="2.75"/>
		<circle fill="#1F332C" cx="88.75" cy="67.25" r="2.75"/>
		<circle fill="#1F332C" cx="88.75" cy="88.75" r="2.75"/>
		<circle fill="#1F332C" cx="88.75" cy="110.25" r="2.75"/>
		<circle fill="#1F332C" cx="88.75" cy="131.75" r="2.75"/>
		<circle fill="#1F332C" cx="88.75" cy="153.25" r="2.75"/>
	</g>
	<g>
		<circle fill="#1F332C" cx="110.25" cy="24.25" r="2.75"/>
		<circle fill="#1F332C" cx="110.25" cy="45.75" r="2.75"/>
		<circle fill="#1F332C" cx="110.25" cy="67.25" r="2.75"/>
		<circle fill="#1F332C" cx="110.25" cy="88.75" r="2.75"/>
		<circle fill="#1F332C" cx="110.25" cy="110.25" r="2.75"/>
		<circle fill="#1F332C" cx="110.25" cy="131.75" r="2.75"/>
		<circle fill="#1F332C" cx="110.25" cy="153.25" r="2.75"/>
	</g>
	<g>
		<circle fill="#1F332C" cx="131.75" cy="24.25" r="2.75"/>
		<circle fill="#1F332C" cx="131.75" cy="45.75" r="2.75"/>
		<circle fill="#1F332C" cx="131.75" cy="67.25" r="2.75"/>
		<circle fill="#1F332C" cx="131.75" cy="88.75" r="2.75"/>
		<circle fill="#1F332C" cx="131.75" cy="110.25" r="2.75"/>
		<circle fill="#1F332C" cx="131.75" cy="131.75" r="2.75"/>
		<circle fill="#1F332C" cx="131.75" cy="153.25" r="2.75"/>
	</g>
	<g>
		<circle fill="#1F332C" cx="153.25" cy="24.25" r="2.75"/>
		<circle fill="#1F332C" cx="153.25" cy="45.75" r="2.75"/>
		<circle fill="#1F332C" cx="153.25" cy="67.25" r="2.75"/>
		<circle fill="#1F332C" cx="153.25" cy="88.75" r="2.75"/>
		<circle fill="#1F332C" cx="153.25" cy="110.25" r="2.75"/>
		<circle fill="#1F332C" cx="153.25" cy="131.75" r="2.75"/>
		<circle fill="#1F332C" cx="153.25" cy="153.25" r="2.75"/>
	</g>
	<g>
		<circle fill="#1F332C" cx="174.75" cy="24.25" r="2.75"/>
		<circle fill="#1F332C" cx="174.75" cy="45.75" r="2.75"/>
		<circle fill="#1F332C" cx="174.75" cy="67.25" r="2.75"/>
		<circle fill="#1F332C" cx="174.75" cy="88.75" r="2.75"/>
		<circle fill="#1F332C" cx="174.75" cy="110.25" r="2.75"/>
		<circle fill="#1F332C" cx="174.75" cy="131.75" r="2.75"/>
		<circle fill="#1F332C" cx="174.75" cy="153.25" r="2.75"/>
	</g>
	<g>
		<circle fill="#1F332C" cx="196.25" cy="24.25" r="2.75"/>
		<circle fill="#1F332C" cx="196.25" cy="45.75" r="2.75"/>
		<circle fill="#1F332C" cx="196.25" cy="67.25" r="2.75"/>
		<circle fill="#1F332C" cx="196.25" cy="88.75" r="2.75"/>
		<circle fill="#1F332C" cx="196.25" cy="110.25" r="2.75"/>
		<circle fill="#1F332C" cx="196.25" cy="131.75" r="2.75"/>
		<circle fill="#1F332C" cx="196.25" cy="153.25" r="2.75"/>
	</g>
	<g>
		<circle fill="#1F332C" cx="217.75" cy="24.25" r="2.75"/>
		<circle fill="#1F332C" cx="217.75" cy="45.75" r="2.75"/>
		<circle fill="#1F332C" cx="217.75" cy="67.25" r="2.75"/>
		<circle fill="#1F332C" cx="217.75" cy="88.75" r="2.75"/>
		<circle fill="#1F332C" cx="217.75" cy="110.25" r="2.75"/>
		<circle fill="#1F332C" cx="217.75" cy="131.75" r="2.75"/>
		<circle fill="#1F332C" cx="217.75" cy="153.25" r="2.75"/>
	</g>
	<g>
		<circle fill="#1F332C" cx="239.25" cy="24.25" r="2.75"/>
		<circle fill="#1F332C" cx="239.25" cy="45.75" r="2.75"/>
		<circle fill="#1F332C" cx="239.25" cy="67.25" r="2.75"/>
		<circle fill="#1F332C" cx="239.25" cy="88.75" r="2.75"/>
		<circle fill="#1F332C" cx="239.25" cy="110.25" r="2.75"/>
		<circle fill="#1F332C" cx="239.25" cy="131.75" r="2.75"/>
		<circle fill="#1F332C" cx="239.25" cy="153.25" r="2.75"/>
	</g>
	<g>
		<circle fill="#1F332C" cx="260.75" cy="24.25" r="2.75"/>
		<circle fill="#1F332C" cx="260.75" cy="45.75" r="2.75"/>
		<circle fill="#1F332C" cx="260.75" cy="67.25" r="2.75"/>
		<circle fill="#1F332C" cx="260.75" cy="88.75" r="2.75"/>
		<circle fill="#1F332C" cx="260.75" cy="110.25" r="2.75"/>
		<circle fill="#1F332C" cx="260.75" cy="131.75" r="2.75"/>
		<circle fill="#1F332C" cx="260.75" cy="153.25" r="2.75"/>
	</g>
	<g>
		<circle fill="#1F332C" cx="282.25" cy="24.25" r="2.75"/>
		<circle fill="#1F332C" cx="282.25" cy="45.75" r="2.75"/>
		<circle fill="#1F332C" cx="282.25" cy="67.25" r="2.75"/>
		<circle fill="#1F332C" cx="282.25" cy="88.75" r="2.75"/>
		<circle fill="#1F332C" cx="282.25" cy="110.25" r="2.75"/>
		<circle fill="#1F332C" cx="282.25" cy="131.75" r="2.75"/>
		<circle fill="#1F332C" cx="282.25" cy="153.25" r="2.75"/>
	</g>
	<circle fill="#1F332C" cx="24.25" cy="2.75" r="2.75"/>
	<circle fill="#1F332C" cx="45.75" cy="2.75" r="2.75"/>
	<circle fill="#1F332C" cx="67.25" cy="2.75" r="2.75"/>
	<circle fill="#1F332C" cx="88.75" cy="2.75" r="2.75"/>
	<circle fill="#1F332C" cx="110.25" cy="2.75" r="2.75"/>
	<circle fill="#1F332C" cx="131.75" cy="2.75" r="2.75"/>
	<circle fill="#1F332C" cx="153.25" cy="2.75" r="2.75"/>
	<circle fill="#1F332C" cx="174.75" cy="2.75" r="2.75"/>
	<circle fill="#1F332C" cx="196.25" cy="2.75" r="2.75"/>
	<circle fill="#1F332C" cx="217.75" cy="2.75" r="2.75"/>
	<circle fill="#1F332C" cx="239.25" cy="2.75" r="2.75"/>
	<circle fill="#1F332C" cx="260.75" cy="2.75" r="2.75"/>
	<circle fill="#1F332C" cx="282.25" cy="2.75" r="2.75"/>
</g>
</svg>
